<?xml version="1.0" encoding="utf-8"?>
<!-- Generator: Adobe Illustrator 19.0.0, SVG Export Plug-In . SVG Version: 6.00 Build 0)  -->
<svg version="1.1" id="Layer_1" xmlns="http://www.w3.org/2000/svg" xmlns:xlink="http://www.w3.org/1999/xlink" x="0px" y="0px"
	 viewBox="-422 214 178 342" style="enable-background:new -422 214 178 342;" xml:space="preserve">
<style type="text/css">
	.st0{fill:#FEC180;}
	.st1{fill:#FFDD00;}
	.st2{fill:#FFE780;}
	.st3{fill:#FFF3C0;}
</style>
<title>Group</title>
<desc>Created using Figma</desc>
<g id="Group">
	<g id="Vector">
		<g transform="matrix(-0.0938288 -0.995588 0.995588 -0.0938288 9236.38 539.6)">
			<path id="path0_fill" class="st0" d="M-411,554c5.9,3.7,24.2,2.6,28.6-9.8c4.6-12.4-8.2-27.5-18.6-30.1
				c-10.5-2.7-18.2,8.4-20.3,15.5C-423.5,536.3-418.7,549-411,554z"/>
		</g>
	</g>
	<g id="Vector_1_">
		<g transform="matrix(-0.0938288 -0.995588 0.995588 -0.0938288 9241.67 537.479)">
			<path id="path1_fill" class="st1" d="M-405.8,551.9c5.9,3.7,24.2,2.6,28.6-9.8c4.4-12.4-8.2-27.5-18.6-30.1
				c-10.3-2.7-18.2,8.4-20.3,15.5C-418.1,534.1-413.4,546.9-405.8,551.9z"/>
		</g>
	</g>
	<g id="Vector_2_">
		<g transform="matrix(-0.0938288 -0.995588 0.995588 -0.0938288 9346.22 399.141)">
			<path id="path2_fill" class="st0" d="M-297.6,414.7c7.7,2.3,20-1.5,23.4-8.7c6.4-13.6-4.3-26.2-14.8-28.1
				c-10.1-1.7-22.3,5.4-23.1,11.9C-312.8,396.1-306.8,412-297.6,414.7z"/>
		</g>
	</g>
	<g id="Vector_3_">
		<g transform="matrix(-0.0938288 -0.995588 0.995588 -0.0938288 9351.25 394.195)">
			<path id="path3_fill" class="st2" d="M-292.6,409.8c7.7,2.3,20-1.5,23.4-8.7c6.4-13.6-4.3-26.2-14.8-28.1
				c-10.1-1.7-22.3,5.4-23.1,11.9C-307.7,391.3-301.6,407-292.6,409.8z"/>
		</g>
	</g>
	<g id="Vector_4_">
		<g transform="matrix(-0.0941699 -0.995556 0.99562 -0.0934926 9374.47 295.763)">
			<path id="path4_fill" class="st0" d="M-273.8,305c6,4.5,16.8,10,23,3.7c10.3-10.4-8.6-26-13.2-28.7c-8.4-4.9-19-3.5-19.8,2.6
				C-285.2,295.1-278.9,301-273.8,305z"/>
		</g>
	</g>
	<g id="Vector_5_">
		<g transform="matrix(-0.0941699 -0.995556 0.99562 -0.0934926 9377.9 290.543)">
			<path id="path5_fill" class="st3" d="M-269,300.6c6.9,3.3,15.4,9.1,21.3,2.9c10.2-10.1-11.1-27.5-13.2-28.7
				c-8.4-4.9-19-3.5-19.8,2.6C-281.4,283.6-277.8,296.3-269,300.6z"/>
		</g>
	</g>
	<g id="Vector_6_">
		<g transform="matrix(-0.318658 -0.94787 0.947736 -0.319056 9352.57 228.032)">
			<path id="path6_fill" class="st0" d="M-294.3,237.2c6,3.3,13.3,3.2,14-0.7c0.7-3.9-7.3-13.7-17.2-17.1
				c-9.9-3.4-15.2,3.1-12.4,6.4C-307.3,229-300.1,234.1-294.3,237.2z"/>
		</g>
	</g>
	<g id="Vector_7_">
		<g transform="matrix(-0.318658 -0.94787 0.947736 -0.319056 9354.96 224.314)">
			<path id="path7_fill" class="st2" d="M-291.9,233.5c6,3.3,13.3,3.2,14-0.7c0.7-3.9-7.3-13.7-17.2-17.1
				c-9.9-3.4-15.2,3.1-12.4,6.4C-304.9,225.3-297.7,230.3-291.9,233.5z"/>
		</g>
	</g>
</g>
</svg>
