<?xml version="1.0" standalone="no"?>
<!DOCTYPE svg PUBLIC "-//W3C//DTD SVG 20010904//EN"
 "http://www.w3.org/TR/2001/REC-SVG-20010904/DTD/svg10.dtd">
<svg version="1.0" xmlns="http://www.w3.org/2000/svg"
 width="136.000000pt" height="136.000000pt" viewBox="0 0 136.000000 136.000000"
 preserveAspectRatio="xMidYMid meet">
<metadata>
Created by potrace 1.11, written by Peter Selinger 2001-2013
</metadata>
<g transform="translate(0.000000,136.000000) scale(0.100000,-0.100000)"
fill="#000000" stroke="none">
<path d="M519 1336 c-167 -58 -298 -208 -330 -381 -21 -115 3 -256 62 -352 19
-31 93 -128 186 -243 6 -8 42 -53 79 -99 l67 -84 19 24 c11 13 27 33 36 44 9
11 33 40 52 65 19 25 37 47 40 50 31 26 267 334 284 369 17 37 21 65 21 141 0
87 -3 101 -32 161 -111 225 -398 280 -583 113 -103 -93 -145 -260 -99 -394 16
-46 53 -102 153 -228 44 -57 88 -113 97 -124 15 -19 17 -18 65 39 27 33 63 77
79 98 17 21 58 73 93 114 83 101 106 149 104 222 -2 93 -52 172 -137 217 -45
24 -159 25 -204 2 -85 -43 -137 -121 -140 -210 -3 -80 11 -112 86 -212 51 -66
73 -88 88 -86 37 5 27 36 -39 117 -36 45 -69 93 -73 109 -33 127 53 244 178
244 86 -1 154 -53 179 -139 21 -69 -2 -132 -80 -220 -14 -15 -41 -48 -60 -73
-41 -52 -65 -82 -100 -122 l-25 -29 -94 122 c-59 76 -100 141 -112 175 -41
117 -13 241 75 330 193 193 529 49 528 -225 0 -93 -25 -143 -145 -290 -55 -69
-128 -160 -162 -201 -33 -41 -67 -83 -76 -93 -16 -17 -21 -12 -111 100 -199
250 -218 279 -239 370 -44 188 42 393 205 488 59 35 177 63 244 59 189 -12
354 -141 405 -319 31 -110 14 -257 -40 -342 -16 -26 -231 -296 -360 -452 -29
-36 -53 -73 -53 -82 0 -19 29 -34 41 -22 55 56 406 503 429 545 122 227 40
519 -182 654 -84 51 -139 66 -253 69 -82 3 -112 -1 -166 -19z"/>
</g>
</svg>
