<?xml version="1.0" encoding="utf-8"?>
<!-- Generator: Adobe Illustrator 21.1.0, SVG Export Plug-In . SVG Version: 6.00 Build 0)  -->
<svg version="1.1" id="Layer_1" xmlns="http://www.w3.org/2000/svg" xmlns:xlink="http://www.w3.org/1999/xlink" x="0px" y="0px"
	 viewBox="0 0 357 171.5" style="enable-background:new 0 0 357 171.5;" xml:space="preserve">
<style type="text/css">
	.st0{fill:#B3F1FF;}
	.st1{fill:#196F6B;}
	.st2{fill:#978B7E;}
	.st3{fill:#6BCAE2;}
	.st4{fill:#F2BD8C;}
	.st5{fill:#FEC180;}
	.st6{fill:#DC5C04;}
	.st7{fill:#F6942B;}
	.st8{fill:#5AC877;}
	.st9{fill:#41924B;}
	.st10{fill:#D6E8ED;}
	.st11{fill:#75A9A6;}
	.st12{fill:#CCAA89;}
	.st13{fill:#FFFFFF;}
</style>
<g>
	<g>
		<path class="st0" d="M18.5,121.4c-7.3,1-21.8,7-17.8,13c3.9,6,20.6,10.9,29.3,10.9s19.7-5.4,22.7-9.1
			C55.7,132.6,33.6,119.3,18.5,121.4z"/>
		<path class="st1" d="M34.3,126.1c0,0,0,4.1,2.8,6.4s-0.1,4.4-3.4,1.9c-3.3-2.6-1.7-2.7-3.7-3.7c-1.2-0.6-0.3-3.2,0.5-6.2
			C30.8,123.1,34.2,127.5,34.3,126.1z"/>
		<path class="st1" d="M15.5,127.4c-0.1,2.3-1.1,4.4,0.6,6.8s-1.4,2.9-3.4,1.3s-4.3-7.9-0.3-9.1C16.5,125.2,15.5,127.4,15.5,127.4z"
			/>
		<path class="st2" d="M33,77.5c0,0,4,19.4,1.3,48.9c0,0-4.2,1.5-3.8-5.3c0.3-6.7,2.8-22.3-4.4-34.8C18.4,73.4,33,77.5,33,77.5z"/>
		<path class="st2" d="M27.5,85.2c0,0,0.6,21.2-2.8,26.6s-9.5,17.9-10.8,17.9c-1.3,0-3.1,0.6-1.6-3c1.5-3.6,8.5-16.4,8.6-19.5
			c0.1-3.1-0.2-17.7-1.9-22.6S27.2,79,27.5,85.2z"/>
		<path class="st3" d="M32.7,55.8c0,3-0.8,10.8,0.6,23.6c1,9.1-10.6,9-13.4,6.6s-0.4-14.7-0.7-21.1c-0.4-6.8-4.2-11.5,5.8-17.8
			C30.1,43.8,32.7,52.8,32.7,55.8z"/>
		<path class="st1" d="M23.1,65c-1.3-0.4-1.9,0.2-1.8,1s3.7,0.6,6.2,0.2s3.6-1.2,3.9-1.6c0.4-0.4,0.3-1.1-0.5-1.2
			c-0.7-0.1-1.4,1.4-4.2,1.7C25,65.2,23.1,65,23.1,65z"/>
		<path class="st1" d="M26.1,57.2c-1-0.1-1.8,0.5-1.5,1c0.3,0.6,3.6,0.4,5.1-0.5c1.6-0.8,1.9-1.2,2-1.7c0.1-0.5,0-1-0.6-1.1
			s-1,1.4-2.2,1.9C27.8,57.4,26.1,57.2,26.1,57.2z"/>
		<path class="st1" d="M22.4,73.1c0.5-0.6,1.2-0.2,2.8,0c2.3,0.2,4.3-0.8,5.6-1.8c0.4-0.4,1.7,0,0.4,1.4c-1.1,1.1-3.9,1.7-6.1,1.9
			C22.8,74.7,21.9,73.8,22.4,73.1z"/>
		<path class="st1" d="M32,79.3c0-1-0.8-0.8-2.2-0.2c-1.4,0.7-2.6,1.3-4.9,1c-2.2-0.3-3,1.5-0.4,1.5c2.6,0,3.4-0.3,5.1-0.9
			S32,80.2,32,79.3z"/>
		<path class="st1" d="M21.2,50.2C18.6,51,10.5,58.8,8.7,61.4c-1.8,2.6,9,12.6,10.3,13c1.6,0.5,2.1-2.5,0-4s-6.4-6.4-5.8-7.7
			s4.9-3.7,6.7-5.2c2.1-1.7,5-3,4.7-5.9C24.2,49.8,22.8,49.6,21.2,50.2z"/>
		<path class="st4" d="M25.6,28.1c4.1,0.6,7,8.7,5.1,15.5c-2.1,7.6-7.3,3.8-9.1-3.4S19.7,27.2,25.6,28.1z"/>
		<path class="st1" d="M30,32c-0.1,0.6-0.8-0.8-1.5,0.8c-0.9,2.1-7.9,0-5,4c0,0,1.5,1.6-0.2,2.6c0,0-1.7,1.1-1,2.3
			c0,0-3.3-2-3.3-7.1c0-3.1-0.2-6.5,4.1-7.3c1.9-0.4,3.1,0.9,5.2,2.1C29.2,30,30.2,31.1,30,32z"/>
		<path class="st1" d="M19.4,31.5c-0.6,0.4-1.5,1.1-1.7,2.8c-0.2,1.1,0.2,1.7,1.2,3.3c0.9,1.6,2.5-0.6,3-2.6
			C22.2,32.9,21,30.5,19.4,31.5z"/>
		<path class="st1" d="M18.4,35.7c0,0,0.1,2.2-0.3,3c-0.6,1,0.4,1.5,1.2,1.9c0.4,0.2,0.8-0.2,1.2-0.2c0.2,0,0.3,0.1,0.3,0.4
			c-0.1,0.3,0,0.8,0.5,1.2c0.8,0.7,2,1.6,1.2-0.1c-0.8-1.7-0.9-2.4-0.1-4S18.7,34.5,18.4,35.7z"/>
	</g>
	<g>
		<path class="st5" d="M89.4,41.6c0,0,4.3,22.3,4.5,23.9c0.2,1.6,0.1,4.3-0.6,4.6c-0.7,0.4-6.6-22.7-6.2-24.9
			C87.5,43.1,89.4,41.6,89.4,41.6z"/>
		<path class="st0" d="M84.1,117.2c-5.1,0.7-15.4,4.9-12.6,9.2c2.8,4.3,10.5,8.7,16.7,8.7s17.9-4.9,20-7.4
			C110.4,125.1,101.3,114.8,84.1,117.2z"/>
		<path class="st6" d="M74.1,69.8c0.6,1.4,2.8,30.5,2.8,35.8s-2.2,17.9-1,19c1.2,1.1,6.8,5.1,7.6,3.8s-1-4.1-2.8-6.6
			c-1.8-2.4,0.8-20.3,1.2-23.7c0.4-3.4,1-20.3,1.6-20.3s4.2,22.4,4.2,24.3s-3.6,16.2-3.2,17.9c0.4,1.7,4.6,6.4,5.6,5.6
			c1-0.8-1.2-5-1.2-7.1s3.6-16.4,3-19.9c-0.6-3.6-2.8-29.7-4.2-31.4S72.9,67,74.1,69.8z"/>
		<path class="st7" d="M78.8,28.8c-2.2,1.8-4.5,3.8-6.7,7.1c-1.5,2.3-3.5,12.4-1.9,13.6c2.1,1.5,2.6,3.3,2.6,4s0.6,14.4,0.9,15.3
			c1.2,3.8,14.1,6.3,15.4-0.3c1.2-6-1.4-19.9-0.3-22.8c1.1-2.9,1-3.1,1-6c0-2.9-5.5-10.4-6.9-12C81.6,26.2,78.8,28.8,78.8,28.8z"/>
		<path class="st5" d="M86.4,14.7c0.8,1.8,1.1,6.4-0.2,11.1c-1.4,4.6-3.3,3.7-4.4,4s-4.8-3.3-5-10.7S85.5,12.8,86.4,14.7z"/>
		<path class="st7" d="M81,9.9c-0.1-2-5.2,4.8-5.3,6.7c-0.1,1.9,1.5,6.4,1.5,6.4s1.8-1.3,2.4-4.8c0,0,6.6-0.7,7.9-2.6
			c0,0-0.6-1.8-2.4-3.1C83.8,11.5,81.1,11.2,81,9.9z"/>
		<path class="st5" d="M70.5,49.9c0.4,1.6-1,27.8-0.2,29.8c0.8,2,1.6,0.3,2.1-3.7c0.5-4,2.4-23.2,1.6-25.2
			C73.3,48.8,70.2,48.7,70.5,49.9z"/>
	</g>
	<g>
		<path class="st2" d="M119.5,50.6c-3.1,1.7-2.3,6.6-1.3,10.7c1,4.1,8.3,2.6,8.3,7.3c0,4.7,5,14.6,6,12.9c2.7-5.2-2.7-8.6-1.4-15.8
			c1.3-7.3-0.8-13.3-2.5-16.8C125.1,41.7,120.5,50.1,119.5,50.6z"/>
		<path class="st0" d="M124.7,150.4c-5.9,0.9-16.1,5-14.5,10.7c1.6,5.4,13.8,10.5,20.9,10.5c7.1,0,19.3-5,19.8-8.8
			C151.7,157.6,144.5,147.5,124.7,150.4z"/>
		<path class="st8" d="M117.1,99c-0.3,1.4-1.1,6.8-0.9,9.9c0.2,3.1,1,14.4,2.6,23.7c1,5.6,2.9,18.5,1.8,20.9s-2.9,3.5-2,4.8
			c0.9,1.3,4.4,0,5.7-1.5s0.3-10.9-0.2-14.8c-1.1-10.1-1.3-24.2-0.7-25.7c1.1-2.7,1.1,4.1,1.3,7.5c0.1,2.4,2.3,27.3,2.5,30.1
			c0.2,2.9,0.4,9.2,2,9.4c1.5,0.2,3.3-2,2.6-5.9s-1.4-15.2-1.3-18.9c0.2-12.4,1.8-22.2,1.8-26.8c0-4.6,0.4-9.9-1.4-13.6
			C129.2,94.4,117.5,96.8,117.1,99z"/>
		<path class="st9" d="M121.9,66.2c-0.8,0.5-2.9,2.3-4.6,5.9c-2.2,4.6-2.2,7.5-1.8,8.6c0.6,1.7,2,6.1,2.1,7.7c0,1.7-0.7,10.6,0,12
			c1.2,2.6,7.4,4.9,10.4,3.5c3-1.4,3.6-2.7,3.7-6.5c0.1-3.8-0.6-11,0.4-13c1.1-2,2.2-2.7,1.7-5.3c-0.5-2.6-4.8-10.2-6.3-11.9
			C125.7,65.4,124.2,64.8,121.9,66.2z"/>
		<path class="st5" d="M122,53.9c-2.8-0.3-3.8,0-4.3,4.1c-0.5,4.1,1.8,7.8,3.3,8.5s6-0.8,6-5.4S124.5,54.1,122,53.9z"/>
		<path class="st5" d="M131.1,81.8c-0.2,0.8-0.2,4-0.2,6.5c0.1,2.5,1.3,7.2,1.5,8.2s0.6,10.9,1.3,12.5c0.7,1.6,2.2,1.8,2.3-0.7
			c0.1-2.5-0.4-12.9-0.5-15.5s-1.9-11.4-2.7-12.2C131.8,79.8,131.4,80.5,131.1,81.8z"/>
		<path class="st5" d="M115.5,79.8c-0.6,1.7,0.2,5.1-0.6,8.2c-0.8,3.1-3,14.5-2.5,15.7s1.3,1.5,2-0.2c0.7-1.7,3.1-10.2,3.3-12.9
			c0.1-0.9,0.2-2.8,0.2-4.7c-0.3-0.9-1.5-2.3-1.8-4.9C116.1,80.5,115.7,79.4,115.5,79.8z"/>
	</g>
	<g>
		<path class="st0" d="M175.6,111.2c-5.9,0.8-16.1,4.6-14.5,9.8c1.6,4.9,13.8,9.6,20.9,9.6c7.1,0,21.6-2.2,22.2-5.7
			C205,120.3,195.4,108.5,175.6,111.2z"/>
		<path class="st1" d="M174.1,58.6c-0.7,4.4-3.2,20.5-3.4,26.2c-0.3,5.7,1.1,22.8,1.8,26.8c0.8,4-6.2,5.1-6.2,6.5
			c0,1.3,4.9,1.9,8.7-0.1c3.8-2.1,2.7-3.1,2-7.1s-2.2-25.5-0.1-30.9c2-5.4,2.7-3.1,2.1,0.9c-1.1,7.3,2.2,31.5,2.6,35.9
			s-4.2,5.1-5.2,6.7c-1,1.6,2.7,3.1,6,1.5c3.3-1.6,4.5-5.5,4.5-7s-2.2-22.8-2.3-27.8s3.2-25.5,3.4-32.2
			C188.3,51.3,175,52.8,174.1,58.6z"/>
		<path class="st2" d="M176.6,17.8c-1.2,0.8-3.2,3.3-4.4,6.6c-1.2,3.3-2.6,8.7-1.4,9.7c1.2,1,3.1,2.3,3.3,5.3
			c0.4,6.2-0.4,15.6-1.4,20.8c-1.3,6.2,9.1,8.9,12.9,7.6c3.8-1.3,3.7-5.4,3.7-17.6s-1.2-9.3,0.1-10.1c1.4-0.9,2.5-2.2,2.2-4.2
			c-0.3-2-1-10.8-4.6-14.3C184.6,19.2,179.6,15.7,176.6,17.8z"/>
		<path class="st5" d="M172.4,8.4c-0.3,1.5,1.4,11.3,4.8,11.2c3.4-0.1,5.3-5.4,5.1-9.7C182.2,7,172.8,6.1,172.4,8.4z"/>
		<path class="st1" d="M177.3,0c-4,0.3-6.3,3.3-5.6,8.7c0.2,1.3,3.4,1.8,5.1,1.6c1.7-0.2,1.9-0.5,3.3,0.6c2,1.5,1.3,4.7,1.8,3.8
			c0.9-1.4,1.7-2.5,1.5-7.2C183.4,5.6,182.4-0.4,177.3,0z"/>
		<path class="st5" d="M171.4,35.1c-0.2,2.8-1.6,18.5-3.4,23.4c-1.8,4.9-3,8.3-1.3,8.6c1.7,0.4,3.7-6.8,4.9-9.8s2.4-13.8,2.3-17.3
			S171.6,32.8,171.4,35.1z"/>
		<path class="st5" d="M190.5,38.4c-0.5-0.6-2.8,1-2.6,2.7c0.9,10.7,0.9,25.1,0.5,29.4c-0.4,4.2,2.1,2.7,2.5-0.5
			c0.4-3.2,0.9-13.4,0.8-18.5S191.8,40,190.5,38.4z"/>
	</g>
	<g>
		<path class="st0" d="M331.7,137.3c-5.7,0.8-15.6,4.5-13.9,9.5c1.5,4.8,15.7,8,22.6,7.2c14.6-1.7,16.3-5.5,16.7-7.6
			C357.8,142.5,350.7,134.8,331.7,137.3z"/>
		<path class="st2" d="M327.3,91.8c-0.5,4.6,0.7,13.6,0.9,19.4c0.1,5.8-0.5,22.3,0.6,26.3s-6.3,5.7-6.2,7.1c0.1,1.4,4.5,1.7,8.4-0.7
			c3.9-2.4,3.4-2.8,3.5-7c0.1-4.5,0.8-5.5-0.4-29.5c-0.3-5.9,2-0.4,2.2,3.8c0.4,8.2,0.9,25.3,1.7,29.7c0.8,4.5-1.9,6.1-2.8,7.8
			c-0.9,1.7,0.8,3.7,4.2,1.8c3.4-1.9,4.5-5.9,4.3-7.5s0.2-22.3-0.2-27.4c-0.5-5.1-0.6-18.6-0.8-25.5
			C342.5,83.3,327.9,85.9,327.3,91.8z"/>
		<path class="st5" d="M326.2,58.3c0,5.3-2.2,17.1-2.5,18.8s0.1,10.2,2,10.9c1.9,0.7,2.5-2.2,1.8-4.4c-0.7-2.2-1-7.3,0.3-11.8
			c1.3-4.5,4.1-13,1.6-15C327,54.8,326.2,56.1,326.2,58.3z"/>
		<path class="st10" d="M329.5,47.8c-1.3,0.8-2.1,2.2-3.6,6.9c-1,3.4-2.2,6.4-1.7,7.2c0.8,1.5,3.2,3.6,3.3,5.2
			c0.5,8.6-0.5,19.5-1,25.9c-0.4,6.3,14.7,8.3,16.9,4.5c0.7-1.2,1.3-10,1-22.2c-0.1-6.3-0.9-6.7-0.1-7c1.6-0.7,4.9-1.8,4.5-3.8
			c-0.3-2-0.4-9.9-3.9-13.7C340.5,46.2,332.8,45.7,329.5,47.8z"/>
		<path class="st11" d="M333.5,44.9c-0.7,0.7-2.4,4.1-1.8,4.6s0.4-1,1.3-1.4s2.6-0.7,2.8-1.6C335.9,45.6,334.5,44,333.5,44.9z"/>
		<path class="st5" d="M331.4,34.2c-0.1,1.4,0.5,10.6,3.9,10.8c3.5,0.2,5.2-4.8,6.2-9c0.2-1,1.2-7.6-1.5-9
			C336.4,25,332,26.7,331.4,34.2z"/>
		<path class="st5" d="M340.1,40c0,0-0.9,4.8-3.7,9.5c-1.2,2.1-2.2-7.5-1.3-8.8C336,39.3,340.5,37.6,340.1,40z"/>
		<path class="st5" d="M347.8,66.3c0.3,2,1.5,15.1,0.6,16.6c-0.9,1.4-6.4,12.7-7.1,10c-0.8-3-0.5-3.4,0.3-5.4c0.8-2,3.3-5.7,3.5-7.9
			c0.3-2.2-1.5-10.7-1.4-12.3C343.9,66.1,347.7,65.2,347.8,66.3z"/>
		<path class="st11" d="M340.5,46.7c-0.3-0.5-0.8-2.4-1.5-2.1c-0.7,0.3-1.6,2.5-2,3c-0.4,0.5,0.2,2.4,0.3,2.9
			C337.5,51.1,341.1,47.6,340.5,46.7z"/>
		<path class="st2" d="M332.7,34.5c-0.7-0.2-2.6-0.3-2.5,0.7c0.1,1,0.5,1.5,1.6,1.7c1.1,0.3,1.6,0.3,2.1-0.3
			C334.6,36,334.8,35,332.7,34.5z"/>
		<path class="st10" d="M332.2,35.1c0.4,0.1,1.6,0.3,1.3,0.8c-0.3,0.5-0.7,0.8-1.3,0.7c-0.7-0.1-1.1-0.3-1.3-0.7
			C330.7,35.2,331,34.9,332.2,35.1z"/>
		<path class="st2" d="M337.6,35.4c-0.7-0.2-2.8-0.4-2.5,0.5c0.3,1,0.4,1.6,1.6,1.9s2.2,0.2,2.7-0.5S339.7,35.9,337.6,35.4z"/>
		<path class="st10" d="M337.4,36c-0.4-0.1-1.6-0.3-1.6,0.3s0.3,1,1,1.1c0.7,0.2,1.2,0.2,1.5-0.2C338.6,36.9,339.3,36.4,337.4,36z"
			/>
		<path class="st11" d="M330.9,55.3c0.3,3.3-0.1,19-0.6,30.7c-0.2,5.4-0.7,7.1,0,7.9c0.5,0.6,0.9-0.6,0.8-1.9
			c-0.2-1.7,1.4-38.4,0.7-39.5C331.1,51.4,330.6,52,330.9,55.3z"/>
		<path class="st11" d="M338.9,56.9c0,0-2.2,38.4-1.2,39.2c0.8,0.6,0.9-0.5,0.8-2.3c0-0.4-0.1-4.4,0-7.5c0.4-10.2,1.3-29.7,1.5-31.1
			c0.3-1.8,1.9-3.1,1.9-3.5c0-0.4-0.5-0.7-1.3-0.1C339.7,52.1,338.9,54.6,338.9,56.9z"/>
		<path class="st11" d="M326.7,58.2c-0.7-0.2-0.4,0.5-0.1,0.9c0.3,0.3,1.2,1.2,6.2,2.7c1.2,0.3,4.5,1,6,1.1c2.6,0.1,6-1.2,7.3-1.4
			c2-0.4,1.5-1.6-1.6-0.7c-1.3,0.4-4.4,1.4-5.9,1.3c-2.3-0.1-6.8-1.4-8.6-2C326.8,58.9,327.4,58.3,326.7,58.2z"/>
		<path class="st11" d="M328.9,71.7c-0.8-0.3-0.6,0.9-0.2,1c0.4,0.1,3.6,1.1,6.3,1.6s6.5,0.6,7.9,0.4c1.4-0.1,1.4-1.1-0.7-1
			c-2.1,0.1-7.8,0-10.1-0.8C329.5,72.1,329.5,71.9,328.9,71.7z"/>
		<path class="st11" d="M328.6,82.5c-0.5-0.1-0.2,1.3,0.2,1.4c0.4,0.2,3.4,1.6,5.8,2s6.1,0,7.3-0.4c1.2-0.4,0.3-1.2-1.6-0.7
			c-1.9,0.5-5.7,0.7-7.9-0.3C329.8,83.5,329.1,82.7,328.6,82.5z"/>
	</g>
	<g>
		<path class="st1" d="M228,52.2c-1.4,3.7-1.9,25.4-2.6,28.4c-0.7,3,2.4-4.5,3.1-9.6c0.7-5.1,7.6-3.5,8,0.9
			c0.3,4.4,4.6,11.9,4.6,11.9s-0.5-12.8-0.7-15.9c-0.1-2.2-0.1-17.4-5.2-20.1C230.1,45.1,229,49.5,228,52.2z"/>
		<path class="st5" d="M229.8,51.9c0,0-1.2,2.2-1.5,2.9c-0.3,0.7,0,9.4,2.9,9.7c2.9,0.3,5.4-2.8,5.5-6.8S232.1,54.6,229.8,51.9z"/>
		<path class="st0" d="M231.9,144c-4.5,0.6-13.4,4.3-11,8s9.2,7.2,14.6,7.6c9.9,0.8,15.5-2.8,17.5-6.5
			C254.3,150.5,246.9,141.8,231.9,144z"/>
		<path class="st11" d="M225.9,104.4c0.2,2.7,1.1,22,0,28.8c-1.1,6.8,0.2,10.7,1.6,11.8c1.4,1,4.4-0.4,4.4-3.5s-0.2-5.2-0.6-8.1
			c-0.4-3.9,0.5-23.9,1.2-24.7c1.1-1.3,2.7,16.5,2.3,21.4c-0.5,5-0.5,14.9,1.6,14.9c2.1,0,4.8-2.4,4.6-8.1
			c-0.2-5.8-2.3-19.4-2.1-25.6c0.2-6.3,1.3-8.2-1.2-8.9C235.3,101.7,225.6,100.5,225.9,104.4z"/>
		<path class="st6" d="M230.5,67c-1.8,0.4-4.3,3.4-5.7,6.3c-1.4,2.8-3.3,6-2.4,6.4s2.4,2.6,2.8,3.6c0.9,2.5-0.2,17.8,0.3,19.2
			c0.6,1.7,10.7,1.9,13.2-2c1.8-2.7,0.3-5.8,0.6-14.5c0.1-2.6-0.2-11.3-0.5-13.2C238.4,70.9,237,65.5,230.5,67z"/>
		<path class="st5" d="M223,80.7c0,0-9.5,24.7-8.3,26c1.3,1.3,5.9-10.7,8-14.7C224.8,87.9,224.9,85.4,223,80.7z"/>
		<path class="st5" d="M239.1,79.2c0,0,2.9,19.2,4.4,19.6c1.5,0.4,0.2-6.8,0.1-10.8C243.5,84,242.6,82.1,239.1,79.2z"/>
		<path class="st1" d="M226.9,144.9c0,1.3-0.9,5.9,1.1,6.6c2,0.7,4.8,1.5,3.9-0.7c-0.9-2.2-1.5-5.5-2-6.3S226.9,143.8,226.9,144.9z"
			/>
		<path class="st1" d="M235.9,142.5c0,0-1.6,3.8,0,4.7c1.5,0.9,7.8,2.7,8,1.6c0.2-1.1-2.7-2.4-4.1-4c-0.5-0.6-1-1.4-1.6-2
			C237.3,141.7,236.6,141.7,235.9,142.5z"/>
	</g>
	<g>
		<path class="st0" d="M281.5,124.3c-4.4,1.1-11.7,5.6-8.9,8.9c2.9,3.3,12.3,6.2,17.7,6c10-0.3,14.1-5,12.8-8.8
			C302,127.2,296.3,120.6,281.5,124.3z"/>
		<path class="st5" d="M291,58.1c0.7,0.9,3.4,16.7,2.7,19.3c-0.5,2-1.9-0.3-2.3-3.4c-0.7-6-4.2-13.7-3.2-14.4
			C289.3,58.9,290.6,57.6,291,58.1z"/>
		<path class="st5" d="M278.8,99.3c-1.6-0.6-3.9,4.4-2.9,11s0.1,12.5,1.4,13.2c1.3,0.7,2.3,0,2.6-5.9S283.1,100.9,278.8,99.3z"/>
		<path class="st5" d="M287.5,96c-1.6-0.5-3.7,4.6-2.4,11.1c1.3,6.6,0.7,12.4,2,13.1c1.4,0.6,2.3-0.1,2.3-6.1
			C289.6,108.3,291.9,97.4,287.5,96z"/>
		<path class="st0" d="M279.7,46.2c0,0-5.5,3.8-7.4,6.9c-2,3-3.2,5.7-2.6,6.8c0.7,1.1,3.5,2.8,3.5,2.8s4,5,3.3,7.4
			c-0.7,2.4-2.8,17.2-4.3,23c-1.5,5.9,15,6.3,18,4.1c3-2.2,4.8-3.9,3.9-8.5s-3.7-17-4.3-20.8c-0.5-3.3-1.3-5.9,0.1-8.1
			c1-1.6,2.6-3,2.1-5.2c-0.4-2.2-5-7.4-6.9-8.5C283.1,45.1,281.6,45.4,279.7,46.2z"/>
		<path class="st12" d="M284.4,30.8c3.7,1.7,3.6,5.6,2.6,9.8c-1,4.2-8.5,6.3-12.2,1.8c-2.8-3.4-0.3-6.6,0.5-8.9c0.4-1.2-0.6,0-0.9-2
			c-0.5-3.7,5.8-5.3,7.1-2.7C281.9,29.6,283.3,30.3,284.4,30.8z"/>
		<path class="st0" d="M286.6,36c0,0,1.4-0.2,2,0.6s0.5,3.3-0.9,4.4C286.2,42.1,286.6,36,286.6,36z"/>
		<path class="st0" d="M278.2,48.3c-1.3-0.7-2.2-1-2-2.1c0.3-1,3.2-0.4,3.9-0.5c0.7-0.1,2.5,1.3,0.8,1.9S278.7,48.5,278.2,48.3z"/>
		<path class="st5" d="M283.4,34.7c1.8-0.1,3.4,0.8,3.8,4.6s-1.8,7.1-2.9,7.2c-2.8,0.2-4.4-0.8-5.7-4.9
			C277.4,37.1,281.1,34.8,283.4,34.7z"/>
		<path class="st1" d="M276.7,123.9c0,1.4-1,6.4,0.6,7.8c1.2,1.1,4.8,0.1,3.9-2.3c-0.9-2.4-1.3-4.9-1.8-5.8
			C279.1,122.7,276.7,122.7,276.7,123.9z"/>
		<path class="st13" d="M282.3,33c0,0-4,0.8-5,3.9c0,0-0.8,0.5-0.7-0.3c0.7-2.8,2.4-4.4,5.1-4.8c1.8-0.3,3.2,0.7,3.9,1.3
			c0.4,0.4,0.4,0.5-0.1,0.2C284.8,33.1,283.7,32.7,282.3,33z"/>
		<path class="st13" d="M276.7,38c0,0-1.5,0.3-1.8,1.3c-0.3,1,0.2,3.2,2.1,3.7C278.8,43.6,276.7,38,276.7,38z"/>
		<path class="st1" d="M286.5,120.2c0,0-1.7,4.9-0.1,5.8c1.6,0.9,8.2,2.6,8.2,1c0-2.2-2.8-2.7-4.1-4.3c-0.5-0.6-1.1-1.5-1.6-2.2
			C288,119.3,287.2,119.3,286.5,120.2z"/>
		<path class="st1" d="M286,121.3c0.2-0.8-0.1-2.8-0.2-4.1c-0.1-1.5,0.4,0.3,2.3-0.3c1.4-0.4,1.6-1.7,1.7-0.6s-0.8,4.3-0.2,5.5
			S285.6,123.2,286,121.3z"/>
		<path class="st1" d="M276.8,124.3c0.2-1.2-0.5-3.6-0.7-4.7s0.7-0.9,1.8-0.8s2-1.2,2.3-0.3c0.3,0.8-0.6,3.9-0.7,5.2
			C279.4,125,276.7,125.1,276.8,124.3z"/>
		<path class="st5" d="M271.1,62.2c-0.9-0.6-2.3,6.2-2,7.2c0.3,0.9,6,7.9,7.8,8.7s2-0.5,0.7-2.6c-1.3-2.1-5-5.6-4.6-6.9
			C273.5,67.1,273.4,63.7,271.1,62.2z"/>
	</g>
</g>
</svg>
